<?xml version="1.0" encoding="iso-8859-1"?>
<!-- Generator: Adobe Illustrator 19.1.0, SVG Export Plug-In . SVG Version: 6.00 Build 0)  -->
<svg version="1.1" id="Capa_1" xmlns="http://www.w3.org/2000/svg" xmlns:xlink="http://www.w3.org/1999/xlink" x="0px" y="0px"
	 viewBox="0 0 459.12 459.12" style="enable-background:new 0 0 459.12 459.12;" xml:space="preserve">
<polygon style="fill:#F297D6;" points="168.595,270.01 193.215,312.66 168.595,312.66 143.965,312.66 "/>
<polygon style="fill:#95EFEF;" points="274.205,238.15 302.055,286.38 274.205,286.38 246.355,286.38 "/>
<path style="fill:#95EFEF;" d="M391.045,34.2c16.14,16.14,24.2,37.28,24.2,58.42c0,21.15-8.06,42.29-24.2,58.42l-66.07,66.08
	c-14.02,14.02-32.39,21.02-50.77,21.02c-12.88,0-25.75-3.44-37.12-10.32l34.82-34.82c14.26-14.27,21.4-32.96,21.4-51.66
	c0-18.69-7.14-37.39-21.4-51.65s-32.96-21.4-51.66-21.4c-18.69,0-37.38,7.14-51.65,21.4c-9.35-9.35-20.61-15.64-32.52-18.86
	c3.66-13.41,10.75-26.09,21.29-36.63c32.27-32.26,84.58-32.26,116.84,0c16.14-16.13,37.28-24.2,58.42-24.2
	C353.775,10,374.915,18.07,391.045,34.2z"/>
<path style="fill:#F297D6;" d="M271.905,89.69c14.26,14.26,21.4,32.96,21.4,51.65c0,18.7-7.14,37.39-21.4,51.66l-34.82,34.82
	l-23.6,23.6c-12.4,12.39-28.64,18.59-44.89,18.59s-32.5-6.2-44.9-18.59L65.275,193c-14.27-14.27-21.4-32.96-21.4-51.66
	c0-18.69,7.13-37.39,21.4-51.65c19.18-19.18,46.37-25.47,70.8-18.86c11.91,3.22,23.17,9.51,32.52,18.86
	c14.27-14.26,32.96-21.4,51.65-21.4C238.945,68.29,257.645,75.43,271.905,89.69z"/>
<path style="fill:none;stroke:#000000;stroke-width:20;stroke-linejoin:round;stroke-miterlimit:10;" d="M237.085,227.82
	l34.82-34.82c14.26-14.27,21.4-32.96,21.4-51.66c0-18.69-7.14-37.39-21.4-51.65s-32.96-21.4-51.66-21.4
	c-18.69,0-37.38,7.14-51.65,21.4c-9.35-9.35-20.61-15.64-32.52-18.86c-24.43-6.61-51.62-0.32-70.8,18.86
	c-14.27,14.26-21.4,32.96-21.4,51.65c0,18.7,7.13,37.39,21.4,51.66l58.42,58.42c12.4,12.39,28.65,18.59,44.9,18.59
	s32.49-6.2,44.89-18.59L237.085,227.82z"/>
<path style="fill:none;stroke:#FFFFFF;stroke-width:20;stroke-linecap:round;stroke-linejoin:round;stroke-miterlimit:10;" d="
	M116.935,98.29c11.5,0,22.31,4.48,30.44,12.61"/>
<path style="fill:none;stroke:#FFFFFF;stroke-width:20;stroke-linecap:round;stroke-linejoin:round;stroke-miterlimit:10;" d="
	M86.495,110.9c1.63-1.64,3.38-3.13,5.22-4.46"/>
<path style="fill:none;stroke:#FFFFFF;stroke-width:20;stroke-linecap:round;stroke-linejoin:round;stroke-miterlimit:10;" d="
	M230.175,99.43c7.7,1.81,14.78,5.73,20.51,11.47c16.79,16.78,16.79,44.1,0.01,60.88l-8.9,8.9"/>
<path style="fill:none;stroke:#FFFFFF;stroke-width:20;stroke-linecap:round;stroke-linejoin:round;stroke-miterlimit:10;" d="
	M189.805,110.9c4.07-4.07,8.8-7.22,13.96-9.36"/>
<polygon style="fill:none;stroke:#000000;stroke-width:20;stroke-linejoin:round;stroke-miterlimit:10;" points="168.595,312.66 
	143.965,312.66 168.595,270.01 193.215,312.66 "/>
<path style="fill:none;stroke:#000000;stroke-width:20;stroke-linejoin:round;stroke-miterlimit:10;" d="M237.085,227.82
	c11.37,6.88,24.24,10.32,37.12,10.32c18.38,0,36.75-7,50.77-21.02l66.07-66.08c16.14-16.13,24.2-37.27,24.2-58.42
	c0-21.14-8.06-42.28-24.2-58.42c-16.13-16.13-37.27-24.2-58.42-24.2c-21.14,0-42.28,8.07-58.42,24.2
	c-32.26-32.26-84.57-32.26-116.84,0c-10.54,10.54-17.63,23.22-21.29,36.63"/>
<path style="fill:none;stroke:#FFFFFF;stroke-width:20;stroke-linecap:round;stroke-linejoin:round;stroke-miterlimit:10;" d="
	M310.735,44.74c-5.63,2.58-10.81,6.17-15.33,10.68"/>
<path style="fill:none;stroke:#FFFFFF;stroke-width:20;stroke-linecap:round;stroke-linejoin:round;stroke-miterlimit:10;" d="
	M345.395,154.27l24.43-24.44c9.95-9.94,15.42-23.15,15.42-37.21c0-14.05-5.48-27.27-15.42-37.21c-8.58-8.58-19.6-13.83-31.49-15.1"
	/>
<polygon style="fill:none;stroke:#000000;stroke-width:20;stroke-linejoin:round;stroke-miterlimit:10;" points="246.355,286.38 
	274.205,238.15 302.055,286.38 274.205,286.38 "/>
<line style="fill:none;stroke:#000000;stroke-width:20;stroke-linecap:round;stroke-linejoin:round;stroke-miterlimit:10;" x1="168.595" y1="312.66" x2="168.595" y2="449.12"/>
<line style="fill:none;stroke:#000000;stroke-width:20;stroke-linecap:round;stroke-linejoin:round;stroke-miterlimit:10;" x1="274.205" y1="286.38" x2="274.205" y2="449.12"/>
<g>
</g>
<g>
</g>
<g>
</g>
<g>
</g>
<g>
</g>
<g>
</g>
<g>
</g>
<g>
</g>
<g>
</g>
<g>
</g>
<g>
</g>
<g>
</g>
<g>
</g>
<g>
</g>
<g>
</g>
</svg>
